<svg width="60" height="61" viewBox="0 0 60 61" fill="none" xmlns="http://www.w3.org/2000/svg">
<path d="M6.77735 29.0883L6.7764 29.0911C5.59498 32.5841 5.00049 35.9598 5.00049 39.2158V48.3238C5.00049 49.7045 6.11978 50.8238 7.50049 50.8238H18.7694C20.1501 50.8238 21.2694 49.7045 21.2694 48.3238L21.2694 39.1069L21.2693 39.1027C21.2345 34.9487 21.8968 31.1661 23.2485 27.7484C24.41 24.8556 25.8002 22.0615 27.4193 19.3658C28.1143 18.2087 27.8102 16.6863 26.6697 15.9264L20.643 11.9104C19.7279 11.3006 18.4984 11.3491 17.6652 12.1089C15.4942 14.0883 13.5102 16.4257 11.7118 19.1179L11.7111 19.1189C9.63778 22.2397 7.99299 25.5631 6.77735 29.0883ZM33.6569 29.0883L33.656 29.0911C32.4745 32.5841 31.8801 35.9598 31.8801 39.2158V48.3238C31.8801 49.7045 32.9993 50.8238 34.3801 50.8238H45.6489C47.0296 50.8238 48.1489 49.7045 48.1489 48.3238L48.1489 39.1069L48.1489 39.1027C48.114 34.9489 48.7763 31.1664 50.1279 27.7488C51.2895 24.8559 52.6797 22.0616 54.2988 19.3658C54.9938 18.2087 54.6898 16.6863 53.5493 15.9264L47.5226 11.9104C46.6074 11.3006 45.378 11.3491 44.5447 12.1089C42.3738 14.0883 40.3898 16.4257 38.5914 19.1179L38.5907 19.1189C36.5173 22.2397 34.8726 25.5631 33.6569 29.0883Z" fill="url(#paint0_linear_11_89096)" stroke="#CAFF33"/>
<defs>
<linearGradient id="paint0_linear_11_89096" x1="30.2064" y1="11.5002" x2="30.2064" y2="50.3238" gradientUnits="userSpaceOnUse">
<stop stop-color="#CAFF33"/>
<stop offset="1" stop-color="#191919"/>
</linearGradient>
</defs>
</svg>
